<svg width="20" height="24" viewBox="0 0 20 24" fill="none" xmlns="http://www.w3.org/2000/svg">
<path d="M18.7852 9.86257L19.0657 10.1478L19.3509 9.86728L19.0704 9.5821L18.7852 9.86257ZM10.2852 1.21978L10 1.50025V1.50025L10.2852 1.21978ZM18.2148 10.4235L17.9296 10.704L18.2101 10.9892L18.4953 10.7087L18.2148 10.4235ZM10.4 2.47743L10.6852 2.19695L10 1.50025V2.47743H10.4ZM10.4 23.5V23.9H10.8V23.5H10.4ZM9.6 23.5H9.2V23.9H9.6V23.5ZM9.6 2.47743H10V1.50025L9.31481 2.19695L9.6 2.47743ZM1.78519 10.4235L1.50471 10.7087L1.7899 10.9892L2.07038 10.704L1.78519 10.4235ZM1.21481 9.86257L0.929623 9.5821L0.649145 9.86728L0.934334 10.1478L1.21481 9.86257ZM9.71481 1.21978L10 1.50025V1.50025L9.71481 1.21978ZM10 0.929796L10.2852 0.649319L10 0.359339L9.71481 0.649319L10 0.929796ZM19.0704 9.5821L10.5704 0.939299L10 1.50025L18.5 10.143L19.0704 9.5821ZM18.4953 10.7087L19.0657 10.1478L18.5047 9.57738L17.9343 10.1383L18.4953 10.7087ZM10.1148 2.75791L17.9296 10.704L18.5 10.143L10.6852 2.19695L10.1148 2.75791ZM10.8 23.5L10.8 2.47743H10L10 23.5H10.8ZM9.6 23.9H10.4V23.1H9.6V23.9ZM9.2 2.47743L9.2 23.5H10L10 2.47743H9.2ZM2.07038 10.704L9.88519 2.75791L9.31481 2.19695L1.5 10.143L2.07038 10.704ZM0.934334 10.1478L1.50471 10.7087L2.06567 10.1383L1.49529 9.57738L0.934334 10.1478ZM9.42962 0.939299L0.929623 9.5821L1.5 10.143L10 1.50025L9.42962 0.939299ZM9.71481 0.649319L9.42962 0.939299L10 1.50025L10.2852 1.21027L9.71481 0.649319ZM10.5704 0.939299L10.2852 0.649319L9.71481 1.21027L10 1.50025L10.5704 0.939299Z" fill="#15573F"/>
</svg>
